<?xml version="1.0" encoding="UTF-8"?>
<!DOCTYPE svg PUBLIC "-//W3C//DTD SVG 1.1//EN" "http://www.w3.org/Graphics/SVG/1.1/DTD/svg11.dtd">
<!-- Creator: CorelDRAW -->
<svg xmlns="http://www.w3.org/2000/svg" xml:space="preserve" width="128.259mm" height="41.1121mm" version="1.1" style="shape-rendering:geometricPrecision; text-rendering:geometricPrecision; image-rendering:optimizeQuality; fill-rule:evenodd; clip-rule:evenodd"
viewBox="0 0 7455.45 2389.77"
 xmlns:xlink="http://www.w3.org/1999/xlink"
 xmlns:xodm="http://www.corel.com/coreldraw/odm/2003">
 <defs>
  <style type="text/css">
   <![CDATA[
    .fil0 {fill:#8FBF28}
    .fil1 {fill:#FEFEFE;fill-rule:nonzero}
   ]]>
  </style>
 </defs>
 <g id="Layer_x0020_1">
  <metadata id="CorelCorpID_0Corel-Layer"/>
  <path class="fil0" d="M964.06 2389.77l321.37 0 0 -1285.42 -321.37 0 0 1285.42zm-321.35 -1446.37l2570.82 0 0 -321.38 -1204.71 -602.35c-52.47,-26.21 -108.89,-26.21 -161.38,0l-1204.73 602.35 0 321.38zm1928.12 -321.38l-1285.4 0 642.68 -321.33 642.72 321.33zm-1238.46 803.73l1559.81 0c354.97,0 642.72,-287.73 642.72,-642.72l321.33 0c0,532.42 -431.63,964.07 -964.07,964.07l-1559.79 0 0 -321.35zm-1010.99 964.03l-321.37 0c0,-516.68 406.47,-938.4 917.11,-962.88l0 321.9c-333.02,24.07 -595.73,301.84 -595.73,640.98zm2249.45 0l321.33 0 0 -595.73 -321.33 0 0 595.73zm321.33 -1010.98l0 -274.43 -321.33 0 0 274.43 321.33 0z"/>
  <path class="fil1" d="M4664.71 963.16c-4.88,-16.94 -11.72,-31.92 -20.52,-44.95 -8.78,-13.02 -19.53,-24.09 -32.07,-33.37 -12.54,-9.11 -27.04,-16.11 -42.99,-21 -16.11,-4.73 -33.87,-7.17 -53.24,-7.17 -36.31,0 -68.23,8.96 -95.58,27.02 -27.51,18.08 -48.85,44.28 -63.98,78.65 -15.31,34.19 -22.96,76.19 -22.96,125.69 0,49.5 7.49,91.51 22.47,126.19 15.15,34.84 36.31,61.21 63.82,79.3 27.52,18.23 60.08,27.35 97.53,27.35 34.03,0 63.17,-6.19 87.27,-18.24 24.27,-12.22 42.67,-29.31 55.52,-51.61 12.86,-22.15 19.21,-48.37 19.21,-78.65l30.62 4.4 -183.17 0 0 -113.01 297.31 0 0 89.56c0,62.35 -13.19,115.93 -39.57,160.7 -26.37,44.78 -62.69,79.3 -108.91,103.39 -46.25,24.1 -99.33,36.31 -158.92,36.31 -66.59,0 -125.21,-14.81 -175.52,-44.29 -50.47,-29.47 -89.71,-71.48 -117.88,-125.86 -28.01,-54.55 -42.01,-119.17 -42.01,-194.24 0,-57.48 8.3,-108.93 25.08,-154.2 16.76,-45.1 40.38,-83.52 70.66,-114.95 30.29,-31.42 65.45,-55.35 105.67,-71.79 40.38,-16.46 83.86,-24.59 130.9,-24.59 40.22,0 77.68,5.85 112.34,17.42 34.69,11.72 65.46,28.16 92.49,49.5 26.86,21.33 49.01,46.57 66.1,75.72 17.11,29.31 28.01,61.53 32.9,96.71l-152.57 0zm421.05 490.9c-33.86,0 -64.16,-6.02 -90.85,-17.91 -26.54,-11.88 -47.54,-29.63 -63.01,-53.08 -15.32,-23.44 -22.96,-52.75 -22.96,-87.92 0,-29.63 5.38,-54.55 16.28,-74.57 10.9,-20.19 25.73,-36.31 44.44,-48.52 18.72,-12.38 40.06,-21.65 63.99,-27.84 23.93,-6.18 49.01,-10.59 75.39,-13.19 31.1,-3.25 56,-6.35 74.89,-9.11 19.04,-2.94 32.73,-7.32 41.36,-13.04 8.63,-5.87 12.86,-14.32 12.86,-25.72l0 -2.12c0,-21.98 -6.84,-38.92 -20.69,-50.96 -13.68,-12.04 -33.21,-18.07 -58.44,-18.07 -26.54,0 -47.71,5.85 -63.51,17.58 -15.63,11.71 -26.05,26.22 -31.26,43.8l-136.61 -11.07c6.84,-32.41 20.52,-60.41 40.88,-84.01 20.35,-23.77 46.72,-42.02 78.96,-54.87 32.24,-12.87 69.68,-19.22 112.18,-19.22 29.63,0 57.97,3.42 85.16,10.42 27.19,6.83 51.44,17.58 72.61,32.24 21.18,14.49 37.78,33.22 50.15,56 12.21,22.8 18.24,49.99 18.24,81.74l0 359.34 -140.02 0 0 -73.92 -4.24 0c-8.48,16.61 -20.03,31.27 -34.36,43.97 -14.32,12.54 -31.59,22.31 -51.62,29.47 -20.18,7 -43.46,10.59 -69.85,10.59zm42.35 -102.09c21.82,0 41.02,-4.23 57.63,-13.02 16.61,-8.63 29.8,-20.35 39.24,-35.17 9.43,-14.81 14.17,-31.58 14.17,-50.31l0 -56.5c-4.56,2.94 -10.91,5.7 -18.89,8.14 -7.98,2.44 -16.94,4.56 -26.87,6.51 -9.92,2.12 -19.86,3.74 -29.8,5.21 -9.92,1.62 -19.04,2.94 -27.02,4.07 -17.42,2.6 -32.57,6.5 -45.59,12.21 -12.86,5.54 -22.96,12.86 -30.12,22.31 -7.17,9.28 -10.76,21 -10.76,34.84 0,20.18 7.34,35.49 21.98,45.91 14.82,10.59 33.38,15.79 56.02,15.79zm372.68 91.99l0 -532.9 143.29 0 0 92.97 5.54 0c9.77,-33.06 26.05,-58.13 49.01,-75.07 22.79,-16.93 49.17,-25.56 79.13,-25.56 7.32,0 15.31,0.48 23.94,1.46 8.47,0.98 15.95,2.11 22.47,3.74l0 131.24c-7,-2.12 -16.6,-3.91 -28.83,-5.54 -12.21,-1.63 -23.44,-2.45 -33.54,-2.45 -21.82,0 -41.19,4.73 -58.12,14.01 -17.1,9.43 -30.46,22.3 -40.38,39.07 -9.77,16.61 -14.65,35.82 -14.65,57.48l0 301.53 -147.85 0zm740.99 -226.97l0 -305.93 147.84 0 0 532.9 -141.98 0 0 -96.71 -5.54 0c-12.06,31.1 -31.91,56.18 -59.76,75.23 -27.99,18.88 -61.86,28.48 -101.92,28.48 -35.66,0 -66.91,-8.13 -93.95,-24.41 -27.02,-16.12 -48.18,-39.09 -63.32,-69.03 -15.15,-29.8 -22.8,-65.46 -23.13,-107.15l0 -339.31 147.85 0 0 312.93c0.15,31.43 8.62,56.34 25.23,74.57 16.76,18.23 39.07,27.52 67.07,27.52 17.75,0 34.35,-4.23 49.82,-12.38 15.64,-8.29 28.16,-20.35 37.78,-36.63 9.6,-16.12 14.16,-36.14 14,-60.08zm549.19 -305.93l0 111.04 -320.93 0 0 -111.04 320.93 0zm-247.97 -127.65l147.67 0 0 496.76c0,13.68 2.13,24.26 6.35,31.75 4.07,7.49 9.94,12.86 17.43,15.79 7.49,3.09 16.29,4.56 26.21,4.56 7,0 13.84,-0.66 20.84,-1.96 6.99,-1.3 12.22,-2.27 15.95,-2.93l23.29 109.9c-7.49,2.45 -17.91,5.06 -31.26,8.32 -13.35,3.09 -29.79,4.87 -49.01,5.69 -35.5,1.3 -66.75,-3.42 -93.45,-14.33 -26.71,-10.75 -47.38,-27.67 -62.2,-50.63 -14.82,-22.8 -22.15,-51.78 -21.81,-86.63l0 -516.29zm-2365.45 1606.34l0 -710.55 192.96 0 0 277.61 255.29 0 0 -277.61 192.95 0 0 710.55 -192.95 0 0 -277.61 -255.29 0 0 277.61 -192.96 0zm732.7 0l0 -710.55 512.07 0 0 155.5 -319.12 0 0 122.12 292.75 0 0 155.33 -292.75 0 0 122.11 317.82 0 0 155.5 -510.77 0zm607.81 0l0 -710.55 308.06 0c54.22,0 99.64,7.34 136.61,21.98 36.78,14.49 64.63,35 83.52,61.71 18.88,26.54 28.33,57.96 28.33,93.94 0,26.22 -5.7,49.98 -17.25,71.47 -11.41,21.5 -27.37,39.57 -48.04,53.9 -20.51,14.49 -44.61,24.58 -72.12,30.12l0 6.84c30.6,1.3 58.27,8.96 83.36,23.12 24.92,14.16 44.78,33.7 59.59,58.61 14.82,24.91 22.15,54.07 22.15,87.6 0,38.92 -10.09,73.43 -30.28,103.71 -20.19,30.29 -49.01,54.22 -86.3,71.49 -37.12,17.42 -81.58,26.05 -133.19,26.05l-334.43 0zm192.94 -154.03l90.2 0c32.4,0 56.66,-6.02 72.78,-18.24 16.29,-12.04 24.27,-30.1 24.27,-53.88 0,-16.77 -3.75,-30.77 -11.41,-42.33 -7.64,-11.57 -18.39,-20.36 -32.39,-26.37 -14.01,-6.04 -30.78,-8.96 -50.47,-8.96l-92.97 0 0 149.79zm0 -269.14l79.12 0c16.77,0 31.75,-2.77 44.78,-7.98 12.87,-5.38 22.96,-13.02 30.28,-23.13 7.34,-10.09 10.91,-22.46 10.91,-36.95 0,-21.98 -7.82,-38.74 -23.61,-50.48 -15.63,-11.72 -35.5,-17.58 -59.59,-17.58l-81.9 0 0 136.11zm643.95 423.17l-208.25 0 234.63 -710.55 263.6 0 234.46 710.55 -208.08 0 -155.49 -514.84 -5.55 0 -155.33 514.84zm-38.91 -280.38l391.41 0 0 144.42 -391.41 0 0 -144.42zm521.83 -274.68l0 -155.5 617.58 0 0 155.5 -213.79 0 0 555.05 -190.17 0 0 -555.05 -213.62 0z"/>
 </g>
</svg>
