<?xml version="1.0" encoding="UTF-8"?>
<!DOCTYPE svg PUBLIC "-//W3C//DTD SVG 1.1//EN" "http://www.w3.org/Graphics/SVG/1.1/DTD/svg11.dtd">
<!-- Creator: CorelDRAW -->
<svg xmlns="http://www.w3.org/2000/svg" xml:space="preserve" width="128.258mm" height="41.1119mm" version="1.1" style="shape-rendering:geometricPrecision; text-rendering:geometricPrecision; image-rendering:optimizeQuality; fill-rule:evenodd; clip-rule:evenodd"
viewBox="0 0 5984.3 1918.21"
 xmlns:xlink="http://www.w3.org/1999/xlink"
 xmlns:xodm="http://www.corel.com/coreldraw/odm/2003">
 <defs>
  <style type="text/css">
   <![CDATA[
    .fil0 {fill:#003D75}
    .fil1 {fill:#8FBF28}
    .fil2 {fill:#8FBF28;fill-rule:nonzero}
   ]]>
  </style>
 </defs>
 <g id="Layer_x0020_1">
  <metadata id="CorelCorpID_0Corel-Layer"/>
  <g id="_105553241031776">
   <path class="fil0" d="M773.82 1918.21l257.94 0 0 -1031.76 -257.94 0 0 1031.76zm1289.69 0l257.94 0 0 -1031.76 -257.94 0 0 1031.76z"/>
   <path class="fil1" d="M257.95 1918.21l-257.95 0c0,-427.36 346.45,-773.81 773.82,-773.81l0 257.94c-284.91,0 -515.87,230.96 -515.87,515.87z"/>
   <path class="fil1" d="M1031.75 1144.39l1289.69 0c284.91,0 515.88,-230.96 515.88,-515.88l257.94 0c0,427.37 -346.45,773.82 -773.82,773.82l-1289.69 0 0 -257.94z"/>
   <path class="fil0" d="M515.88 757.23l2063.5 0 0 -257.94 -966.99 -483.49c-42.12,-21.07 -87.4,-21.07 -129.53,0l-966.98 483.49 0 257.94zm1547.62 -257.94l-1031.75 0 515.87 -257.95 515.88 257.95z"/>
  </g>
  <path class="fil2" d="M3744.23 773.1c-3.92,-13.6 -9.41,-25.62 -16.47,-36.08 -7.05,-10.45 -15.68,-19.34 -25.74,-26.79 -10.07,-7.31 -21.7,-12.93 -34.5,-16.85 -12.93,-3.79 -27.18,-5.75 -42.73,-5.75 -29.14,0 -54.76,7.19 -76.72,21.69 -22.08,14.51 -39.21,35.54 -51.36,63.13 -12.29,27.44 -18.43,61.16 -18.43,100.89 0,39.73 6.01,73.45 18.04,101.29 12.16,27.96 29.14,49.14 51.23,63.65 22.09,14.63 48.23,21.95 78.29,21.95 27.32,0 50.71,-4.97 70.05,-14.64 19.48,-9.81 34.25,-23.53 44.57,-41.42 10.33,-17.78 15.42,-38.82 15.42,-63.13l24.57 3.53 -147.03 0 0 -90.71 238.65 0 0 71.89c0,50.05 -10.59,93.05 -31.76,128.99 -21.17,35.94 -50.32,63.65 -87.42,82.99 -37.12,19.34 -79.73,29.14 -127.56,29.14 -53.45,0 -100.5,-11.89 -140.88,-35.55 -40.51,-23.66 -72.01,-57.38 -94.62,-101.02 -22.48,-43.78 -33.72,-95.66 -33.72,-155.91 0,-46.14 6.66,-87.44 20.13,-123.77 13.46,-36.2 32.41,-67.04 56.72,-92.27 24.31,-25.22 52.54,-44.43 84.82,-57.62 32.41,-13.21 67.31,-19.74 105.07,-19.74 32.28,0 62.35,4.7 90.18,13.98 27.84,9.41 52.54,22.61 74.24,39.73 21.56,17.12 39.34,37.38 53.06,60.78 13.73,23.53 22.48,49.39 26.41,77.63l-122.46 0zm337.97 394.03c-27.18,0 -51.5,-4.83 -72.92,-14.38 -21.3,-9.54 -38.16,-23.79 -50.57,-42.61 -12.29,-18.82 -18.43,-42.34 -18.43,-70.57 0,-23.79 4.32,-43.79 13.07,-59.86 8.75,-16.21 20.65,-29.14 35.67,-38.95 15.03,-9.94 32.16,-17.38 51.36,-22.35 19.21,-4.96 39.34,-8.5 60.52,-10.59 24.96,-2.61 44.95,-5.1 60.11,-7.31 15.29,-2.36 26.27,-5.88 33.2,-10.47 6.92,-4.71 10.33,-11.49 10.33,-20.64l0 -1.7c0,-17.65 -5.49,-31.24 -16.61,-40.91 -10.98,-9.67 -26.66,-14.5 -46.91,-14.5 -21.3,0 -38.29,4.69 -50.97,14.11 -12.55,9.4 -20.91,21.05 -25.09,35.16l-109.65 -8.88c5.49,-26.01 16.47,-48.49 32.81,-67.44 16.34,-19.08 37.5,-33.72 63.38,-44.05 25.88,-10.33 55.93,-15.43 90.05,-15.43 23.78,0 46.53,2.75 68.36,8.37 21.82,5.48 41.29,14.11 58.28,25.88 17,11.63 30.33,26.67 40.26,44.95 9.8,18.3 14.64,40.13 14.64,65.61l0 288.44 -112.39 0 0 -59.34 -3.4 0c-6.8,13.33 -16.08,25.1 -27.58,35.29 -11.5,10.06 -25.35,17.91 -41.43,23.65 -16.2,5.62 -34.89,8.5 -56.06,8.5zm33.99 -81.95c17.51,0 32.93,-3.4 46.26,-10.45 13.33,-6.93 23.92,-16.34 31.5,-28.23 7.57,-11.89 11.37,-25.35 11.37,-40.38l0 -45.35c-3.66,2.36 -8.76,4.57 -15.16,6.54 -6.41,1.96 -13.6,3.66 -21.57,5.23 -7.96,1.7 -15.94,3 -23.92,4.19 -7.96,1.3 -15.29,2.36 -21.69,3.27 -13.98,2.09 -26.14,5.22 -36.59,9.8 -10.33,4.45 -18.43,10.32 -24.17,17.91 -5.76,7.45 -8.64,16.86 -8.64,27.97 0,16.2 5.89,28.49 17.65,36.85 11.9,8.5 26.8,12.68 44.97,12.68zm299.14 73.84l0 -427.75 115.01 0 0 74.63 4.45 0c7.84,-26.54 20.91,-46.66 39.34,-60.25 18.29,-13.59 39.47,-20.52 63.52,-20.52 5.88,0 12.29,0.39 19.21,1.18 6.8,0.78 12.8,1.69 18.03,3l0 105.34c-5.62,-1.7 -13.33,-3.14 -23.14,-4.45 -9.8,-1.31 -18.82,-1.96 -26.92,-1.96 -17.51,0 -33.06,3.79 -46.65,11.24 -13.73,7.57 -24.45,17.9 -32.41,31.36 -7.84,13.33 -11.76,28.75 -11.76,46.14l0 242.03 -118.68 0zm594.78 -182.18l0 -245.57 118.67 0 0 427.75 -113.96 0 0 -77.63 -4.45 0c-9.68,24.97 -25.61,45.09 -47.97,60.39 -22.47,15.15 -49.65,22.86 -81.81,22.86 -28.62,0 -53.71,-6.53 -75.41,-19.6 -21.69,-12.94 -38.67,-31.37 -50.83,-55.41 -12.16,-23.92 -18.3,-52.54 -18.57,-86.01l0 -272.35 118.68 0 0 251.18c0.12,25.23 6.92,45.23 20.25,59.86 13.46,14.64 31.36,22.09 53.84,22.09 14.25,0 27.57,-3.4 39.99,-9.93 12.55,-6.66 22.61,-16.34 30.33,-29.4 7.71,-12.94 11.37,-29.01 11.24,-48.23zm440.82 -245.57l0 89.13 -257.6 0 0 -89.13 257.6 0zm-199.04 -102.46l118.53 0 0 398.74c0,10.98 1.71,19.48 5.1,25.48 3.27,6.01 7.98,10.33 13.99,12.68 6.01,2.48 13.07,3.66 21.04,3.66 5.62,0 11.11,-0.53 16.73,-1.57 5.61,-1.05 9.81,-1.82 12.8,-2.35l18.69 88.21c-6.01,1.97 -14.38,4.06 -25.09,6.68 -10.72,2.48 -23.91,3.91 -39.34,4.57 -28.49,1.05 -53.58,-2.75 -75.01,-11.5 -21.44,-8.63 -38.03,-22.21 -49.93,-40.64 -11.89,-18.3 -17.78,-41.56 -17.51,-69.53l0 -414.42zm-1898.69 1289.38l0 -570.34 154.88 0 0 222.83 204.91 0 0 -222.83 154.88 0 0 570.34 -154.88 0 0 -222.83 -204.91 0 0 222.83 -154.88 0zm588.12 0l0 -570.34 411.03 0 0 124.82 -256.15 0 0 98.02 234.98 0 0 124.68 -234.98 0 0 98.01 255.11 0 0 124.82 -409.98 0zm487.87 0l0 -570.34 247.27 0c43.52,0 79.98,5.89 109.66,17.65 29.53,11.63 51.87,28.1 67.04,49.54 15.15,21.3 22.74,46.52 22.74,75.4 0,21.04 -4.57,40.12 -13.85,57.37 -9.16,17.26 -21.97,31.76 -38.56,43.27 -16.46,11.63 -35.81,19.73 -57.89,24.17l0 5.49c24.56,1.05 46.77,7.19 66.91,18.56 20,11.37 35.94,27.05 47.83,47.05 11.89,20 17.78,43.4 17.78,70.31 0,31.24 -8.1,58.94 -24.3,83.25 -16.21,24.31 -39.34,43.52 -69.27,57.38 -29.8,13.98 -65.48,20.91 -106.91,20.91l-268.44 0zm154.87 -123.64l72.4 0c26.01,0 45.48,-4.83 58.42,-14.64 13.07,-9.66 19.48,-24.16 19.48,-43.25 0,-13.46 -3.01,-24.7 -9.16,-33.98 -6.14,-9.28 -14.76,-16.34 -26,-21.17 -11.25,-4.85 -24.71,-7.19 -40.51,-7.19l-74.63 0 0 120.23zm0 -216.03l63.51 0c13.46,0 25.48,-2.22 35.94,-6.4 10.33,-4.32 18.43,-10.45 24.31,-18.57 5.89,-8.1 8.76,-18.03 8.76,-29.66 0,-17.64 -6.28,-31.1 -18.95,-40.52 -12.55,-9.41 -28.49,-14.11 -47.83,-14.11l-65.74 0 0 109.25zm516.88 339.67l-167.16 0 188.34 -570.34 211.59 0 188.2 570.34 -167.02 0 -124.81 -413.25 -4.45 0 -124.68 413.25zm-31.23 -225.05l314.18 0 0 115.92 -314.18 0 0 -115.92zm418.86 -220.48l0 -124.82 495.72 0 0 124.82 -171.6 0 0 445.53 -152.64 0 0 -445.53 -171.47 0z"/>
 </g>
</svg>
